<?xml version="1.0" encoding="UTF-8"?>
<svg width="24px" height="24px" viewBox="0 0 24 24" version="1.1" xmlns="http://www.w3.org/2000/svg" xmlns:xlink="http://www.w3.org/1999/xlink">
    <title>location</title>
    <g id="UI" stroke="none" stroke-width="1" fill="none" fill-rule="evenodd">
        <g id="[2-WEB]-Main" transform="translate(-308.000000, -202.000000)" fill="#212121" fill-rule="nonzero">
            <g id="Group-3" transform="translate(50.000000, 180.000000)">
                <path d="M280.893298,29.9656836 C281.631099,29.9656836 282,29.5924933 282,28.8461126 L282,25.8734584 C282,24.5951743 281.67185,23.6300268 281.01555,22.9780161 C280.359249,22.3260054 279.379088,22 278.075067,22 L275.115282,22 C274.368901,22 273.99571,22.3689008 273.99571,23.1067024 C273.99571,23.844504 274.368901,24.2134048 275.115282,24.2134048 L277.984987,24.2134048 C278.559786,24.2134048 279.003753,24.3656836 279.31689,24.6702413 C279.630027,24.9747989 279.786595,25.4316354 279.786595,26.0407507 L279.786595,28.8461126 C279.786595,29.5924933 280.155496,29.9656836 280.893298,29.9656836 Z M259.106702,29.9656836 C259.844504,29.9656836 260.213405,29.5924933 260.213405,28.8461126 L260.213405,26.0407507 C260.213405,25.4316354 260.369973,24.9747989 260.68311,24.6702413 C260.996247,24.3656836 261.440214,24.2134048 262.015013,24.2134048 L264.884718,24.2134048 C265.639678,24.2134048 266.017158,23.844504 266.017158,23.1067024 C266.017158,22.3689008 265.639678,22 264.884718,22 L261.924933,22 C260.629491,22 259.651475,22.3260054 258.990885,22.9780161 C258.330295,23.6300268 258,24.5951743 258,25.8734584 L258,28.8461126 C258,29.5924933 258.368901,29.9656836 259.106702,29.9656836 Z M269.916354,41.8820375 C270.456836,41.8820375 270.872922,41.5517426 271.164611,40.8911528 L276.466488,29.4380697 C276.620912,29.1034853 276.698123,28.8160858 276.698123,28.5758713 C276.698123,28.2670241 276.590885,28.0053619 276.376408,27.7908847 C276.16193,27.5764075 275.895979,27.4691689 275.578552,27.4691689 C275.338338,27.4691689 275.050938,27.5463807 274.716354,27.7008043 L263.17319,33.0284182 C262.872922,33.1656836 262.647721,33.3394102 262.497587,33.5495979 C262.347453,33.7597855 262.272386,33.9892761 262.272386,34.2380697 C262.272386,34.6069705 262.379625,34.8922252 262.594102,35.0938338 C262.808579,35.2954424 263.117426,35.3962466 263.520643,35.3962466 L268.758177,35.4091153 L268.771046,40.5308311 C268.771046,40.9683646 268.86756,41.3029491 269.06059,41.5345845 C269.253619,41.7662198 269.538874,41.8820375 269.916354,41.8820375 Z M270.418231,38.6648794 L270.443968,34.5211796 C270.443968,34.2809651 270.371046,34.0857909 270.225201,33.9356568 C270.079357,33.7855228 269.882038,33.7104558 269.633244,33.7104558 L265.52815,33.736193 L274.587668,29.566756 L270.418231,38.6648794 Z M264.884718,45.9871314 C265.639678,45.9871314 266.017158,45.6225201 266.017158,44.8932976 C266.017158,44.155496 265.639678,43.7865952 264.884718,43.7865952 L262.015013,43.7865952 C261.440214,43.7865952 260.996247,43.6343164 260.68311,43.3297587 C260.369973,43.0252011 260.213405,42.5640751 260.213405,41.9463807 L260.213405,39.1538874 C260.213405,38.4075067 259.844504,38.0343164 259.106702,38.0343164 C258.368901,38.0343164 258,38.4075067 258,39.1538874 L258,42.1136729 C258,43.4005362 258.330295,44.3678284 258.990885,45.0155496 C259.651475,45.6632708 260.629491,45.9871314 261.924933,45.9871314 L264.884718,45.9871314 Z M278.075067,45.9871314 C279.379088,45.9871314 280.359249,45.661126 281.01555,45.0091153 C281.67185,44.3571046 282,43.3919571 282,42.1136729 L282,39.1538874 C282,38.4075067 281.631099,38.0343164 280.893298,38.0343164 C280.155496,38.0343164 279.786595,38.4075067 279.786595,39.1538874 L279.786595,41.9463807 C279.786595,42.5640751 279.630027,43.0252011 279.31689,43.3297587 C279.003753,43.6343164 278.559786,43.7865952 277.984987,43.7865952 L275.115282,43.7865952 C274.368901,43.7865952 273.99571,44.155496 273.99571,44.8932976 C273.99571,45.6225201 274.368901,45.9871314 275.115282,45.9871314 L278.075067,45.9871314 Z" id="location"></path>
            </g>
        </g>
    </g>
</svg>