<?xml version="1.0" encoding="UTF-8"?>
<svg width="192px" height="93px" viewBox="0 0 192 93" version="1.1" xmlns="http://www.w3.org/2000/svg" xmlns:xlink="http://www.w3.org/1999/xlink">
    <title>Group</title>
    <g id="UI" stroke="none" stroke-width="1" fill="none" fill-rule="evenodd">
        <g id="[2-WEB]-Main" transform="translate(-53.000000, -63.000000)" fill-rule="nonzero">
            <g id="Group" transform="translate(53.000000, 63.000000)">
                <path d="M6.54,27 L6.54,15.984 L15.36,15.984 L15.36,27 L21.768,27 L21.768,0.18 L15.36,0.18 L15.36,10.404 L6.54,10.404 L6.54,0.18 L0.096,0.18 L0.096,27 L6.54,27 Z M35.3971616,27.504 C37.7731616,27.504 40.5811616,26.676 42.7051616,25.164 L40.5811616,21.312 C39.1051616,22.176 37.7371616,22.608 36.2611616,22.608 C33.6691616,22.608 31.7251616,21.456 31.1491616,18.648 L43.1731616,18.648 C43.3171616,18.144 43.4611616,17.028 43.4611616,15.876 C43.4611616,10.296 40.5811616,6.012 34.6771616,6.012 C29.7451616,6.012 24.9571616,10.116 24.9571616,16.74 C24.9571616,23.544 29.4931616,27.504 35.3971616,27.504 Z M38.0251616,14.436 L31.0411616,14.436 C31.4731616,12.024 33.0211616,10.908 34.7851616,10.908 C37.1251616,10.908 38.0251616,12.42 38.0251616,14.436 Z M48.4503231,34.884 C53.3103231,34.884 55.5423231,32.292 57.5223231,27.036 L64.5783231,6.516 L58.4583231,6.516 L56.0823231,15.012 C55.6143231,16.956 55.1463231,18.864 54.7503231,20.808 L54.5703231,20.808 C54.0303231,18.792 53.5983231,16.884 52.9863231,15.012 L50.2503231,6.516 L43.8063231,6.516 L51.6543231,26.388 L51.3663231,27.432 C50.8983231,28.872 49.8903231,29.88 47.9463231,29.88 C47.4783231,29.88 46.9383231,29.7 46.5783231,29.628 L45.4263231,34.488 C46.2903231,34.74 47.1183231,34.884 48.4503231,34.884 Z M64.2754847,35.172 C69.2794847,33.66 71.9434847,30.168 71.9434847,25.524 C71.9434847,21.78 70.3954847,19.548 67.5874847,19.548 C65.3554847,19.548 63.5914847,20.988 63.5914847,23.148 C63.5914847,25.452 65.4274847,26.748 67.4074847,26.748 L67.7314847,26.748 C67.7674847,28.728 66.1114847,30.672 62.9794847,31.752 L64.2754847,35.172 Z M6.54,79 L6.54,69.568 L9.636,69.568 L14.568,79 L21.768,79 L15.792,68.38 C18.564,67.084 20.4,64.564 20.4,60.64 C20.4,54.16 15.648,52.18 9.924,52.18 L0.096,52.18 L0.096,79 L6.54,79 Z M9.42,64.492 L6.54,64.492 L6.54,57.292 L9.42,57.292 C12.48,57.292 14.136,58.12 14.136,60.64 C14.136,63.16 12.48,64.492 9.42,64.492 Z M26.9371616,55.672 C29.0611616,55.672 30.5011616,54.376 30.5011616,52.36 C30.5011616,50.38 29.0611616,49.084 26.9371616,49.084 C24.7771616,49.084 23.3731616,50.38 23.3731616,52.36 C23.3731616,54.376 24.7771616,55.672 26.9371616,55.672 Z M30.1411616,79 L30.1411616,58.516 L23.7331616,58.516 L23.7331616,79 L30.1411616,79 Z M41.2863231,87.604 C48.4143231,87.604 52.9143231,84.544 52.9143231,80.224 C52.9143231,76.516 50.0343231,74.968 44.9943231,74.968 L41.7543231,74.968 C39.5583231,74.968 38.7303231,74.536 38.7303231,73.6 C38.7303231,72.88 38.9463231,72.592 39.3783231,72.16 C40.2783231,72.412 41.1063231,72.52 41.7903231,72.52 C46.3263231,72.52 49.9623231,70.432 49.9623231,65.644 C49.9623231,64.672 49.7103231,63.736 49.4223231,63.16 L52.5543231,63.16 L52.5543231,58.516 L45.0303231,58.516 C44.0943231,58.192 42.9783231,58.012 41.7903231,58.012 C37.3623231,58.012 33.2223231,60.46 33.2223231,65.428 C33.2223231,67.84 34.5543231,69.748 36.0303231,70.756 L36.0303231,70.9 C34.6623231,71.836 33.7263231,73.276 33.7263231,74.716 C33.7263231,76.444 34.5183231,77.524 35.5983231,78.244 L35.5983231,78.424 C33.6903231,79.396 32.7183231,80.764 32.7183231,82.456 C32.7183231,86.128 36.5703231,87.604 41.2863231,87.604 Z M41.7903231,68.668 C40.3143231,68.668 39.1983231,67.588 39.1983231,65.428 C39.1983231,63.376 40.3143231,62.296 41.7903231,62.296 C43.3023231,62.296 44.4183231,63.376 44.4183231,65.428 C44.4183231,67.588 43.3023231,68.668 41.7903231,68.668 Z M42.2943231,83.608 C39.7023231,83.608 37.9743231,82.888 37.9743231,81.448 C37.9743231,80.764 38.2623231,80.188 38.9103231,79.612 C39.5151231,79.78 40.2453631,79.85392 41.5400831,79.8630293 L43.7703231,79.864 C45.6783231,79.864 46.7583231,80.116 46.7583231,81.34 C46.7583231,82.636 44.9223231,83.608 42.2943231,83.608 Z M61.1794847,79 L61.1794847,65.32 C62.4034847,64.132 63.2674847,63.484 64.7074847,63.484 C66.3274847,63.484 67.0834847,64.276 67.0834847,67.12 L67.0834847,79 L73.4914847,79 L73.4914847,66.328 C73.4914847,61.216 71.5834847,58.012 67.1194847,58.012 C64.3474847,58.012 62.3314847,59.416 60.8554847,60.784 L61.1794847,57.148 L61.1794847,50.236 L54.7714847,50.236 L54.7714847,79 L61.1794847,79 Z M85.1766463,79.504 C87.2646463,79.504 88.7406463,79.072 89.8206463,78.748 L88.8126463,74.104 C88.3086463,74.284 87.5886463,74.5 86.9406463,74.5 C85.4286463,74.5 84.3486463,73.6 84.3486463,71.332 L84.3486463,63.52 L89.1726463,63.52 L89.1726463,58.516 L84.3486463,58.516 L84.3486463,53.08 L79.0566463,53.08 L78.3366463,58.516 L75.1686463,58.768 L75.1686463,63.52 L77.9406463,63.52 L77.9406463,71.404 C77.9406463,76.228 80.0286463,79.504 85.1766463,79.504 Z M105.090969,79 L105.090969,65.32 C106.314969,64.132 107.178969,63.484 108.618969,63.484 C110.238969,63.484 110.994969,64.276 110.994969,67.12 L110.994969,79 L117.402969,79 L117.402969,66.328 C117.402969,61.216 115.494969,58.012 111.030969,58.012 C108.258969,58.012 106.242969,59.416 104.766969,60.784 L105.090969,57.148 L105.090969,50.236 L98.6829694,50.236 L98.6829694,79 L105.090969,79 Z M130.312131,79.504 C132.688131,79.504 135.496131,78.676 137.620131,77.164 L135.496131,73.312 C134.020131,74.176 132.652131,74.608 131.176131,74.608 C128.584131,74.608 126.640131,73.456 126.064131,70.648 L138.088131,70.648 C138.232131,70.144 138.376131,69.028 138.376131,67.876 C138.376131,62.296 135.496131,58.012 129.592131,58.012 C124.660131,58.012 119.872131,62.116 119.872131,68.74 C119.872131,75.544 124.408131,79.504 130.312131,79.504 Z M132.940131,66.436 L125.956131,66.436 C126.388131,64.024 127.936131,62.908 129.700131,62.908 C132.040131,62.908 132.940131,64.42 132.940131,66.436 Z M147.541293,79 L147.541293,67.3 C148.585293,64.6 150.421293,63.628 151.933293,63.628 C152.833293,63.628 153.445293,63.772 154.201293,63.952 L155.245293,58.444 C154.669293,58.192 153.985293,58.012 152.761293,58.012 C150.709293,58.012 148.441293,59.344 146.929293,62.08 L146.821293,62.08 L146.353293,58.516 L141.133293,58.516 L141.133293,79 L147.541293,79 Z M165.346454,79.504 C167.722454,79.504 170.530454,78.676 172.654454,77.164 L170.530454,73.312 C169.054454,74.176 167.686454,74.608 166.210454,74.608 C163.618454,74.608 161.674454,73.456 161.098454,70.648 L173.122454,70.648 C173.266454,70.144 173.410454,69.028 173.410454,67.876 C173.410454,62.296 170.530454,58.012 164.626454,58.012 C159.694454,58.012 154.906454,62.116 154.906454,68.74 C154.906454,75.544 159.442454,79.504 165.346454,79.504 Z M167.974454,66.436 L160.990454,66.436 C161.422454,64.024 162.970454,62.908 164.734454,62.908 C167.074454,62.908 167.974454,64.42 167.974454,66.436 Z" id="Hey,Righthere" fill="#212121"></path>
                <path d="M184.448,79.672 C187.376,79.672 189.536,77.32 189.536,74.344 C189.536,71.368 187.376,69.064 184.448,69.064 C181.472,69.064 179.36,71.368 179.36,74.344 C179.36,77.32 181.472,79.672 184.448,79.672 Z" id="." fill="#FFFB47"></path>
            </g>
        </g>
    </g>
</svg>