<?xml version="1.0" encoding="UTF-8"?>
<svg width="16px" height="17px" viewBox="0 0 16 17" version="1.1" xmlns="http://www.w3.org/2000/svg" xmlns:xlink="http://www.w3.org/1999/xlink">
    <title>Search</title>
    <g id="UI" stroke="none" stroke-width="1" fill="none" fill-rule="evenodd">
        <g id="[2-WEB]-Main" transform="translate(-66.000000, -282.000000)" fill="#FD146A" fill-rule="nonzero">
            <g id="Group-5" transform="translate(50.000000, 180.000000)">
                <g id="Group-4" transform="translate(0.000000, 83.000000)">
                    <path d="M30.9023982,35.1517011 C31.1165644,35.1517011 31.3069344,35.1041086 31.4735081,35.0089236 C31.6400818,34.9137386 31.7694739,34.781372 31.8616843,34.6118238 C31.9538948,34.4422755 32,34.2533928 32,34.0451757 C32,33.9023982 31.9747165,33.7625953 31.9241495,33.6257669 C31.8735825,33.4889385 31.7947574,33.3699572 31.6876743,33.2688232 L31.6876743,33.2688232 L27.8739929,29.4409355 L27.9391598,29.3532393 C28.1552356,29.0471197 28.3451649,28.7227857 28.5089477,28.3802373 L28.6268823,28.1199108 C28.9659788,27.3286856 29.135527,26.4809444 29.135527,25.5766871 C29.135527,24.6724298 28.9659788,23.8232013 28.6268823,23.0290017 C28.2877858,22.234802 27.8163227,21.5357873 27.212493,20.9319576 C26.6086633,20.3281279 25.9096486,19.8551775 25.115449,19.5131065 C24.3212493,19.1710355 23.4720208,19 22.5677635,19 C21.6635062,19 20.815765,19.1710355 20.0245399,19.5131065 C19.2333147,19.8551775 18.5343001,20.3281279 17.9274958,20.9319576 C17.3206916,21.5357873 16.8477412,22.2333147 16.5086447,23.0245399 C16.1695482,23.815765 16,24.6664808 16,25.5766871 C16,26.4809444 16.1695482,27.3286856 16.5086447,28.1199108 C16.8477412,28.9111359 17.3192043,29.6101506 17.923034,30.2169548 C18.5268637,30.8237591 19.2258784,31.2967094 20.0200781,31.6358059 C20.8142777,31.9749024 21.6635062,32.1444506 22.5677635,32.1444506 C23.4720208,32.1444506 24.3212493,31.9749024 25.115449,31.6358059 C25.4684266,31.4850964 25.8026023,31.3079465 26.1179759,31.1043564 L26.2756468,30.9974003 L30.1171221,34.8304518 C30.1974345,34.9152259 30.2861127,34.9824317 30.3831567,35.0320692 L30.4829894,35.0758505 C30.6198178,35.1264175 30.7596207,35.1517011 30.9023982,35.1517011 Z M22.5677635,30.5471277 C21.8895706,30.5471277 21.2485592,30.4177356 20.6447295,30.1589515 C20.0408998,29.9001673 19.5114334,29.5417364 19.0563302,29.0836587 C18.601227,28.625581 18.2442833,28.0976018 17.9854992,27.4997211 C17.726715,26.9018405 17.5973229,26.2608292 17.5973229,25.5766871 C17.5973229,24.8984941 17.726715,24.2589701 17.9854992,23.6581149 C18.2442833,23.0572597 18.601227,22.5277933 19.0563302,22.0697156 C19.5114334,21.6116379 20.0408998,21.2517197 20.6447295,20.989961 C21.2485592,20.7282023 21.8895706,20.5973229 22.5677635,20.5973229 C23.2519056,20.5973229 23.8944042,20.7282023 24.4952593,20.989961 C25.0961145,21.2517197 25.6240937,21.6116379 26.0791969,22.0697156 C26.5343001,22.5277933 26.8912437,23.0572597 27.1500279,23.6581149 C27.408812,24.2589701 27.5382041,24.8984941 27.5382041,25.5766871 C27.5382041,26.2608292 27.408812,26.9018405 27.1500279,27.4997211 C26.8912437,28.0976018 26.5343001,28.625581 26.0791969,29.0836587 C25.6240937,29.5417364 25.0961145,29.9001673 24.4952593,30.1589515 C23.8944042,30.4177356 23.2519056,30.5471277 22.5677635,30.5471277 Z" id="Search"></path>
                </g>
            </g>
        </g>
    </g>
</svg>