<?xml version="1.0" encoding="UTF-8"?>
<svg width="376px" height="55px" viewBox="0 0 376 55" version="1.1" xmlns="http://www.w3.org/2000/svg" xmlns:xlink="http://www.w3.org/1999/xlink">
    <title>구글 버튼</title>
    <g id="UI" stroke="none" stroke-width="1" fill="none" fill-rule="evenodd">
        <g id="[1-WEB]-Welcome" transform="translate(-128.000000, -731.000000)">
            <g id="구글-버튼" transform="translate(128.000000, 731.000000)">
                <g id="카카오-버튼">
                    <rect id="Rectangle" fill="#F8F8F8" x="0" y="0" width="376" height="55" rx="8"></rect>
                    <g id="Group-3" transform="translate(168.000000, 14.000000)" fill="#252318" fill-rule="nonzero">
                        <path d="M44.9111383,20.9341277 L44.9111383,14.9021277 L50.6711383,14.9021277 L50.6711383,13.5421277 L48.6551383,13.5421277 C48.998605,11.630661 49.0215027,10.1930788 49.0230292,8.90416618 L49.0231383,7.36612766 L39.1671383,7.36612766 L39.1671383,8.69412766 L47.4071383,8.69412766 C47.4071383,10.0221277 47.4071383,11.5261277 46.9911383,13.5421277 L37.5991383,13.5421277 L37.5991383,14.9021277 L43.2471383,14.9021277 L43.2471383,20.9341277 L44.9111383,20.9341277 Z M64.8085434,13.0621277 L64.8085434,11.7341277 L62.8725434,11.7341277 C63.1512101,10.3261277 63.1744323,9.18701655 63.1763675,8.2798221 L63.1765434,7.07812766 L53.3685434,7.07812766 L53.3685434,8.40612766 L61.5605434,8.40612766 C61.5605434,9.30212766 61.5125434,10.3581277 61.2245434,11.7341277 L51.7205434,11.7341277 L51.7205434,13.0621277 L64.8085434,13.0621277 Z M63.5605434,20.7901277 L63.5605434,19.4941277 L54.9045434,19.4941277 L54.9045434,18.1341277 L63.1925434,18.1341277 L63.1925434,14.2941277 L53.2245434,14.2941277 L53.2245434,15.6061277 L61.5445434,15.6061277 L61.5445434,16.9021277 L53.2565434,16.9021277 L53.2565434,20.7901277 L63.5605434,20.7901277 Z M81.1953537,20.9341277 L81.1953537,6.48612766 L79.6113537,6.48612766 L79.6113537,20.9341277 L81.1953537,20.9341277 Z M78.2353537,20.2301277 L78.2353537,6.83812766 L76.6993537,6.83812766 L76.6993537,10.3901277 L74.8753537,10.3901277 C74.9873537,9.71812766 75.0353537,8.99812766 75.0353537,8.26212766 L69.4513537,8.26212766 L69.4513537,9.59012766 L73.4033537,9.59012766 C73.1633537,12.5501277 71.7233537,14.9021277 68.7473537,16.7101277 L69.6913537,17.8781277 C72.3953537,16.2621277 73.9153537,14.1661277 74.5873537,11.7341277 L76.6993537,11.7341277 L76.6993537,14.0221277 L74.3313537,14.0221277 L74.3313537,15.3661277 L76.6993537,15.3661277 L76.6993537,20.2301277 L78.2353537,20.2301277 Z M94.9327589,15.0941277 L94.9327589,6.48612766 L93.2847589,6.48612766 L93.2847589,10.1181277 L90.7247589,10.1181277 L90.7247589,11.4621277 L93.2847589,11.4621277 L93.2847589,15.0941277 L94.9327589,15.0941277 Z M83.8127589,15.0141277 C85.5247589,14.4061277 86.7407589,13.1261277 87.3807589,11.5421277 C87.9887589,12.9341277 89.1407589,14.0701277 90.7407589,14.6301277 L91.5567589,13.3341277 C89.3967589,12.5821277 88.1647589,10.7901277 88.1647589,8.98212766 L88.1647589,8.79012766 L91.1727589,8.79012766 L91.1727589,7.46212766 L83.4447589,7.46212766 L83.4447589,8.79012766 L86.5007589,8.79012766 L86.5007589,8.99812766 C86.5007589,10.9821277 85.2047589,12.9021277 82.9647589,13.7021277 L83.8127589,15.0141277 Z M90.1327589,20.9501277 C93.1407589,20.9501277 94.9967589,19.9421277 94.9967589,18.2141277 C94.9967589,16.5021277 93.1407589,15.4781277 90.1327589,15.4781277 C87.1087589,15.4781277 85.2527589,16.5021277 85.2527589,18.2141277 C85.2527589,19.9421277 87.1087589,20.9501277 90.1327589,20.9501277 Z M90.1327589,19.6701277 C88.0687589,19.6701277 86.9007589,19.1581277 86.9007589,18.2141277 C86.9007589,17.2701277 88.0687589,16.7581277 90.1327589,16.7581277 C92.1647589,16.7581277 93.3487589,17.2701277 93.3487589,18.2141277 C93.3487589,19.1581277 92.1647589,19.6701277 90.1327589,19.6701277 Z M103.614164,15.4621277 C106.622164,15.4621277 108.926164,13.8461277 108.926164,11.3821277 C108.926164,8.93412766 106.622164,7.30212766 103.614164,7.30212766 C100.590164,7.30212766 98.302164,8.93412766 98.302164,11.3821277 C98.302164,13.8461277 100.590164,15.4621277 103.614164,15.4621277 Z M103.614164,14.1021277 C101.470164,14.1021277 99.902164,13.0461277 99.902164,11.3821277 C99.902164,9.71812766 101.470164,8.66212766 103.614164,8.66212766 C105.742164,8.66212766 107.326164,9.71812766 107.326164,11.3821277 C107.326164,13.0461277 105.742164,14.1021277 103.614164,14.1021277 Z M110.174164,19.1101277 L110.174164,17.7501277 L97.086164,17.7501277 L97.086164,19.1101277 L110.174164,19.1101277 Z M124.295569,19.2381277 L124.295569,17.8781277 L118.551569,17.8781277 L118.551569,15.4141277 L123.063569,15.4141277 L123.063569,14.0861277 L114.407569,14.0861277 L114.407569,12.0701277 L122.743569,12.0701277 L122.743569,7.49412766 L112.759569,7.49412766 L112.759569,8.82212766 L121.111569,8.82212766 L121.111569,10.7581277 L112.791569,10.7581277 L112.791569,15.4141277 L116.903569,15.4141277 L116.903569,17.8781277 L111.207569,17.8781277 L111.207569,19.2381277 L124.295569,19.2381277 Z M139.514379,20.9181277 L139.514379,13.5581277 L141.706379,13.5581277 L141.706379,12.1821277 L139.514379,12.1821277 L139.514379,6.47012766 L137.866379,6.47012766 L137.866379,20.9181277 L139.514379,20.9181277 Z M129.226379,18.2941277 C133.946379,15.9101277 135.738379,12.1981277 135.738379,8.00612766 L129.034379,8.00612766 L129.034379,9.35012766 L134.090379,9.35012766 C133.754379,12.6781277 131.850379,15.2221277 128.314379,17.0301277 L129.226379,18.2941277 Z M154.355785,14.2461277 L154.355785,6.48612766 L152.707785,6.48612766 L152.707785,14.2461277 L154.355785,14.2461277 Z M146.563785,13.8621277 C148.771785,13.8621277 150.387785,12.4861277 150.387785,10.5021277 C150.387785,8.51812766 148.771785,7.14212766 146.563785,7.14212766 C144.355785,7.14212766 142.723785,8.51812766 142.723785,10.5021277 C142.723785,12.4861277 144.355785,13.8621277 146.563785,13.8621277 Z M146.563785,12.5021277 C145.251785,12.5021277 144.339785,11.7181277 144.339785,10.5021277 C144.339785,9.30212766 145.251785,8.50212766 146.563785,8.50212766 C147.859785,8.50212766 148.787785,9.30212766 148.787785,10.5021277 C148.787785,11.7181277 147.859785,12.5021277 146.563785,12.5021277 Z M154.355785,20.7581277 L154.355785,14.9181277 L152.723785,14.9181277 L152.723785,16.5181277 L146.547785,16.5181277 L146.547785,14.9181277 L144.915785,14.9181277 L144.915785,20.7581277 L154.355785,20.7581277 Z M152.723785,19.4301277 L146.547785,19.4301277 L146.547785,17.7981277 L152.723785,17.7981277 L152.723785,19.4301277 Z M167.78919,20.9501277 L167.78919,13.6701277 L170.01319,13.6701277 L170.01319,12.2941277 L167.78919,12.2941277 L167.78919,6.48612766 L166.12519,6.48612766 L166.12519,20.9501277 L167.78919,20.9501277 Z M164.95719,10.0541277 L164.95719,8.71012766 L161.58119,8.71012766 L161.58119,6.71012766 L159.93319,6.71012766 L159.93319,8.71012766 L156.49319,8.71012766 L156.49319,10.0541277 L164.95719,10.0541277 Z M160.78119,17.8301277 C162.84519,17.8301277 164.36519,16.4381277 164.36519,14.4541277 C164.36519,12.4861277 162.84519,11.0781277 160.78119,11.0781277 C158.70119,11.0781277 157.19719,12.4861277 157.19719,14.4541277 C157.19719,16.4381277 158.70119,17.8301277 160.78119,17.8301277 Z M160.78119,16.4701277 C159.61319,16.4701277 158.76519,15.6701277 158.76519,14.4541277 C158.76519,13.2381277 159.61319,12.4381277 160.78119,12.4381277 C161.94919,12.4381277 162.79719,13.2381277 162.79719,14.4541277 C162.79719,15.6701277 161.94919,16.4701277 160.78119,16.4701277 Z M182.614595,20.9341277 L182.614595,6.48612766 L180.966595,6.48612766 L180.966595,20.9341277 L182.614595,20.9341277 Z M171.670595,18.3581277 C176.630595,15.9581277 178.358595,12.3101277 178.358595,8.00612766 L171.510595,8.00612766 L171.510595,9.35012766 L176.662595,9.35012766 C176.374595,12.6781277 174.582595,15.2221277 170.790595,17.0461277 L171.670595,18.3581277 Z" id="구글계정으로가입하기"></path>
                    </g>
                </g>
                <g id="G" transform="translate(29.000000, 20.000000)" fill-rule="nonzero">
                    <path d="M16.9540905,8.83620908 C16.9540905,8.22785059 16.9024379,7.64109062 16.8051387,7.07952894 L8.64882633,7.07952894 L8.64882633,10.4069019 L13.3203873,10.4069019 C13.1197828,11.4915079 12.5131646,12.4143649 11.5930269,13.0323227 L11.5930269,15.1933753 L14.3810682,15.1933753 C16.013532,13.6886779 16.9540905,11.4652297 16.9540905,8.83620908" id="Fill-8" fill="#4285F4"></path>
                    <path d="M8.6488143,17.278821 C10.9827929,17.278821 12.9479958,16.5132733 14.3810563,15.1933632 L11.5930149,13.0323108 C10.817024,13.5542751 9.81760546,13.8590544 8.6488143,13.8590544 C6.39291524,13.8590544 4.47816385,12.339958 3.79346606,10.2928977 L0.921338969,10.2928977 L0.921338969,12.5187458 C2.34478966,15.3409532 5.2697706,17.278821 8.6488143,17.278821" id="Fill-10" fill="#34A853"></path>
                    <path d="M3.79347807,10.2928737 C3.61809933,9.7709093 3.5220014,9.21414729 3.5220014,8.63938651 C3.5220014,8.06462572 3.61809933,7.50786372 3.79347807,6.98589933 L3.79347807,4.76005121 L0.921350982,4.76005121 C0.332751118,5.92637162 1.20122421e-05,7.24388172 1.20122421e-05,8.63938651 C1.20122421e-05,10.0348913 0.332751118,11.3525214 0.921350982,12.5187218 L3.79347807,10.2928737 Z" id="Fill-12" fill="#FABB05"></path>
                    <path d="M8.6488143,3.41976666 C9.9233132,3.41976666 11.0656774,3.85773678 11.9665956,4.71567824 L11.9665956,4.71687816 L14.4351113,2.2510464 C12.9359835,0.856741541 10.9815917,0 8.6488143,0 C5.2697706,0 2.34478966,1.93786777 0.921338969,4.7600752 L3.79346606,6.98592333 C4.47816385,4.938863 6.39291524,3.41976666 8.6488143,3.41976666" id="Fill-14" fill="#E94235"></path>
                </g>
            </g>
        </g>
    </g>
</svg>