<?xml version="1.0" encoding="UTF-8"?>
<svg width="376px" height="55px" viewBox="0 0 376 55" version="1.1" xmlns="http://www.w3.org/2000/svg" xmlns:xlink="http://www.w3.org/1999/xlink">
    <title>애플 버튼</title>
    <g id="UI" stroke="none" stroke-width="1" fill="none" fill-rule="evenodd">
        <g id="[1-WEB]-Welcome" transform="translate(-128.000000, -660.000000)">
            <g id="Group-4" transform="translate(128.000000, 660.000000)">
                <g id="Button-Shape" fill="#000000">
                    <path d="M10.2555408,-4.14336123e-16 L365.744459,4.14336123e-16 C369.310534,-2.4074122e-16 370.603679,0.371302445 371.907383,1.06853082 C373.211087,1.76575919 374.234241,2.78891348 374.931469,4.09261719 C375.628698,5.39632089 376,6.68946584 376,10.2555408 L376,44.7444592 C376,48.3105342 375.628698,49.6036791 374.931469,50.9073828 C374.234241,52.2110865 373.211087,53.2342408 371.907383,53.9314692 C370.603679,54.6286976 369.310534,55 365.744459,55 L10.2555408,55 C6.68946584,55 5.39632089,54.6286976 4.09261719,53.9314692 C2.78891348,53.2342408 1.76575919,52.2110865 1.06853082,50.9073828 C0.371302445,49.6036791 1.60494146e-16,48.3105342 -2.76224082e-16,44.7444592 L2.76224082e-16,10.2555408 C-1.60494146e-16,6.68946584 0.371302445,5.39632089 1.06853082,4.09261719 C1.76575919,2.78891348 2.78891348,1.76575919 4.09261719,1.06853082 C5.39632089,0.371302445 6.68946584,2.4074122e-16 10.2555408,-4.14336123e-16 Z" id="Appearance"></path>
                </g>
                <g id="Group-5" transform="translate(29.000000, 13.000000)" fill="#FFFFFF">
                    <text id="" font-family="SFProText-Semibold, SF Pro Text" font-size="24" font-weight="500" letter-spacing="-1.27636383">
                        <tspan x="1.83191951" y="23"></tspan>
                    </text>
                    <path d="M184.6399,21.216 L184.6399,6.784 L183.0719,6.784 L183.0719,12.416 L181.4239,12.416 L181.4239,7.056 L179.8719,7.056 L179.8719,20.544 L181.4239,20.544 L181.4239,13.76 L183.0719,13.76 L183.0719,21.216 L184.6399,21.216 Z M175.5519,18.16 C177.4239,18.16 178.6559,16.192 178.6559,13.04 C178.6559,9.856 177.4239,7.904 175.5519,7.904 C173.6799,7.904 172.4479,9.856 172.4479,13.04 C172.4479,16.192 173.6799,18.16 175.5519,18.16 Z M175.5519,16.608 C174.5759,16.608 173.9679,15.328 173.9679,13.04 C173.9679,10.752 174.5759,9.456 175.5519,9.456 C176.5279,9.456 177.1359,10.752 177.1359,13.04 C177.1359,15.328 176.5279,16.608 175.5519,16.608 Z M198.201305,12.048 L198.201305,10.8 L196.249305,10.8 L196.249305,8.464 L198.281305,8.464 L198.281305,7.2 L187.577305,7.2 L187.577305,8.464 L189.625305,8.464 L189.625305,10.8 L187.657305,10.8 L187.657305,12.048 L198.201305,12.048 Z M194.601305,10.8 L191.273305,10.8 L191.273305,8.464 L194.601305,8.464 L194.601305,10.8 Z M199.497305,14.368 L199.497305,13.056 L186.409305,13.056 L186.409305,14.368 L199.497305,14.368 Z M198.265305,21.104 L198.265305,19.872 L189.625305,19.872 L189.625305,18.784 L197.849305,18.784 L197.849305,15.424 L187.961305,15.424 L187.961305,16.64 L196.233305,16.64 L196.233305,17.648 L187.993305,17.648 L187.993305,21.104 L198.265305,21.104 Z M215.900116,21.232 L215.900116,6.784 L214.316116,6.784 L214.316116,21.232 L215.900116,21.232 Z M212.940116,20.528 L212.940116,7.136 L211.404116,7.136 L211.404116,10.688 L209.580116,10.688 C209.692116,10.016 209.740116,9.296 209.740116,8.56 L204.156116,8.56 L204.156116,9.888 L208.108116,9.888 C207.868116,12.848 206.428116,15.2 203.452116,17.008 L204.396116,18.176 C207.100116,16.56 208.620116,14.464 209.292116,12.032 L211.404116,12.032 L211.404116,14.32 L209.036116,14.32 L209.036116,15.664 L211.404116,15.664 L211.404116,20.528 L212.940116,20.528 Z M229.637521,15.392 L229.637521,6.784 L227.989521,6.784 L227.989521,10.416 L225.429521,10.416 L225.429521,11.76 L227.989521,11.76 L227.989521,15.392 L229.637521,15.392 Z M218.517521,15.312 C220.229521,14.704 221.445521,13.424 222.085521,11.84 C222.693521,13.232 223.845521,14.368 225.445521,14.928 L226.261521,13.632 C224.101521,12.88 222.869521,11.088 222.869521,9.28 L222.869521,9.088 L225.877521,9.088 L225.877521,7.76 L218.149521,7.76 L218.149521,9.088 L221.205521,9.088 L221.205521,9.296 C221.205521,11.28 219.909521,13.2 217.669521,14 L218.517521,15.312 Z M224.837521,21.248 C227.845521,21.248 229.701521,20.24 229.701521,18.512 C229.701521,16.8 227.845521,15.776 224.837521,15.776 C221.813521,15.776 219.957521,16.8 219.957521,18.512 C219.957521,20.24 221.813521,21.248 224.837521,21.248 Z M224.837521,19.968 C222.773521,19.968 221.605521,19.456 221.605521,18.512 C221.605521,17.568 222.773521,17.056 224.837521,17.056 C226.869521,17.056 228.053521,17.568 228.053521,18.512 C228.053521,19.456 226.869521,19.968 224.837521,19.968 Z M238.318926,15.76 C241.326926,15.76 243.630926,14.144 243.630926,11.68 C243.630926,9.232 241.326926,7.6 238.318926,7.6 C235.294926,7.6 233.006926,9.232 233.006926,11.68 C233.006926,14.144 235.294926,15.76 238.318926,15.76 Z M238.318926,14.4 C236.174926,14.4 234.606926,13.344 234.606926,11.68 C234.606926,10.016 236.174926,8.96 238.318926,8.96 C240.446926,8.96 242.030926,10.016 242.030926,11.68 C242.030926,13.344 240.446926,14.4 238.318926,14.4 Z M244.878926,19.408 L244.878926,18.048 L231.790926,18.048 L231.790926,19.408 L244.878926,19.408 Z M259.000331,19.536 L259.000331,18.176 L253.256331,18.176 L253.256331,15.712 L257.768331,15.712 L257.768331,14.384 L249.112331,14.384 L249.112331,12.368 L257.448331,12.368 L257.448331,7.792 L247.464331,7.792 L247.464331,9.12 L255.816331,9.12 L255.816331,11.056 L247.496331,11.056 L247.496331,15.712 L251.608331,15.712 L251.608331,18.176 L245.912331,18.176 L245.912331,19.536 L259.000331,19.536 Z M274.219141,21.216 L274.219141,13.856 L276.411141,13.856 L276.411141,12.48 L274.219141,12.48 L274.219141,6.768 L272.571141,6.768 L272.571141,21.216 L274.219141,21.216 Z M263.931141,18.592 C268.651141,16.208 270.443141,12.496 270.443141,8.304 L263.739141,8.304 L263.739141,9.648 L268.795141,9.648 C268.459141,12.976 266.555141,15.52 263.019141,17.328 L263.931141,18.592 Z M289.060546,14.544 L289.060546,6.784 L287.412546,6.784 L287.412546,14.544 L289.060546,14.544 Z M281.268546,14.16 C283.476546,14.16 285.092546,12.784 285.092546,10.8 C285.092546,8.816 283.476546,7.44 281.268546,7.44 C279.060546,7.44 277.428546,8.816 277.428546,10.8 C277.428546,12.784 279.060546,14.16 281.268546,14.16 Z M281.268546,12.8 C279.956546,12.8 279.044546,12.016 279.044546,10.8 C279.044546,9.6 279.956546,8.8 281.268546,8.8 C282.564546,8.8 283.492546,9.6 283.492546,10.8 C283.492546,12.016 282.564546,12.8 281.268546,12.8 Z M289.060546,21.056 L289.060546,15.216 L287.428546,15.216 L287.428546,16.816 L281.252546,16.816 L281.252546,15.216 L279.620546,15.216 L279.620546,21.056 L289.060546,21.056 Z M287.428546,19.728 L281.252546,19.728 L281.252546,18.096 L287.428546,18.096 L287.428546,19.728 Z M302.493952,21.248 L302.493952,13.968 L304.717952,13.968 L304.717952,12.592 L302.493952,12.592 L302.493952,6.784 L300.829952,6.784 L300.829952,21.248 L302.493952,21.248 Z M299.661952,10.352 L299.661952,9.008 L296.285952,9.008 L296.285952,7.008 L294.637952,7.008 L294.637952,9.008 L291.197952,9.008 L291.197952,10.352 L299.661952,10.352 Z M295.485952,18.128 C297.549952,18.128 299.069952,16.736 299.069952,14.752 C299.069952,12.784 297.549952,11.376 295.485952,11.376 C293.405952,11.376 291.901952,12.784 291.901952,14.752 C291.901952,16.736 293.405952,18.128 295.485952,18.128 Z M295.485952,16.768 C294.317952,16.768 293.469952,15.968 293.469952,14.752 C293.469952,13.536 294.317952,12.736 295.485952,12.736 C296.653952,12.736 297.501952,13.536 297.501952,14.752 C297.501952,15.968 296.653952,16.768 295.485952,16.768 Z M317.319357,21.232 L317.319357,6.784 L315.671357,6.784 L315.671357,21.232 L317.319357,21.232 Z M306.375357,18.656 C311.335357,16.256 313.063357,12.608 313.063357,8.304 L306.215357,8.304 L306.215357,9.648 L311.367357,9.648 C311.079357,12.976 309.287357,15.52 305.495357,17.344 L306.375357,18.656 Z" id="애플계정으로가입하기" fill-rule="nonzero"></path>
                </g>
            </g>
        </g>
    </g>
</svg>